<?xml version="1.0" encoding="UTF-8"?>
<svg version="1.1" xmlns="http://www.w3.org/2000/svg" width="393" height="187">
<path d="M0 0 C20.28172973 15.30388307 33.91996776 37.20438809 37.61132812 62.45019531 C40.49878663 87.04147506 34.72956968 111.65674191 19.49023438 131.50488281 C18.35031283 132.88478784 17.20497041 134.26024375 16.05273438 135.62988281 C15.41851562 136.48066406 15.41851562 136.48066406 14.77148438 137.34863281 C1.38633522 154.6513866 -21.11565723 164.57952999 -42.19726562 167.94238281 C-65.81689277 170.74788151 -89.43216696 165.42954446 -108.86132812 151.54785156 C-111.28277239 149.63483744 -113.62153483 147.657443 -115.94726562 145.62988281 C-116.87925781 144.89511719 -116.87925781 144.89511719 -117.83007812 144.14550781 C-133.9281121 131.29595603 -144.75900368 108.72889929 -147.19775391 88.55810547 C-149.81389515 62.77042754 -143.54808533 38.07925001 -127.39648438 17.51269531 C-95.59609191 -19.91743171 -40.79301239 -28.70240541 0 0 Z M-119.94726562 25.62988281 C-135.07350053 45.2354822 -139.43717017 67.64018818 -136.67480469 92.03613281 C-134.4326859 105.45073584 -127.09963422 119.61890878 -117.94726562 129.62988281 C-116.74650391 130.96792969 -116.74650391 130.96792969 -115.52148438 132.33300781 C-101.31108898 147.38656705 -81.47068818 157.10756141 -60.63476562 157.83300781 C-45.7175715 158.08197129 -32.54934616 156.21516594 -18.94726562 149.62988281 C-18.02300781 149.18773437 -17.09875 148.74558594 -16.14648438 148.29003906 C2.7050642 138.66428371 15.73924711 122.05363744 22.92773438 102.37988281 C29.59887536 80.51210882 27.72627911 58.09044633 17.17773438 37.75488281 C5.51386477 17.73436738 -12.22728981 4.08730151 -34.49804688 -2.40527344 C-66.42924868 -9.77928889 -98.54690346 0.66279362 -119.94726562 25.62988281 Z " fill="#070148" transform="translate(255.947265625,17.3701171875)"/>
<path d="M0 0 C5.77800591 0.07884219 11.28888548 0.96342365 16.125 4.1875 C16.455 3.5275 16.785 2.8675 17.125 2.1875 C33.87031554 9.90868296 45.41527409 19.07087846 53.1171875 36.38671875 C55.50892408 43.03352158 56.44972732 48.92558619 56.375 55.9375 C56.38660156 57.04931641 56.38660156 57.04931641 56.3984375 58.18359375 C56.38474942 61.99572418 56.26669103 64.95796591 54.125 68.1875 C53.88265625 67.53523438 53.6403125 66.88296875 53.390625 66.2109375 C49.98512286 57.33043576 46.79326501 51.53804967 38.125 47.1875 C32.14408712 44.81770433 26.45283437 44.99860942 20.125 45.1875 C19.465 45.1875 18.805 45.1875 18.125 45.1875 C16.51266875 46.17428196 14.91008642 47.17702074 13.3125 48.1875 C6.16529192 52.14047747 -0.65529298 52.64255107 -8.5234375 50.44921875 C-16.33799598 47.29483717 -21.07000445 41.54870292 -24.875 34.1875 C-27.09161815 27.08585078 -26.50226439 20.74756138 -23.4375 14 C-20.30101425 8.25963929 -16.64969838 4.30786333 -10.875 1.1875 C-7.13321497 0.20281973 -3.8565781 0.18660862 0 0 Z M16.125 4.1875 C17.775 6.1675 19.425 8.1475 21.125 10.1875 C21.44083648 7.21232427 21.44083648 7.21232427 19.75 5.5 C18.21382742 3.9780543 18.21382742 3.9780543 16.125 4.1875 Z M22.125 10.1875 C23.39474972 14.60272109 23.39474972 14.60272109 26.125 18.1875 C25.62668276 14.49995243 25.02432357 12.58259338 22.125 10.1875 Z M-18.875 18.1875 C-18.875 22.4775 -18.875 26.7675 -18.875 31.1875 C-18.215 31.1875 -17.555 31.1875 -16.875 31.1875 C-16.875 26.8975 -16.875 22.6075 -16.875 18.1875 C-17.535 18.1875 -18.195 18.1875 -18.875 18.1875 Z M-13.875 18.1875 C-14.88611093 21.23663228 -14.88611093 21.23663228 -13.875 24.1875 C-12.885 24.496875 -11.895 24.80625 -10.875 25.125 C-9.39 25.6509375 -9.39 25.6509375 -7.875 26.1875 C-7.545 27.1775 -7.215 28.1675 -6.875 29.1875 C-10.24962715 28.64026317 -11.95735 28.1326 -14.875 26.1875 C-14.37743908 28.94391416 -14.37743908 28.94391416 -12.875 31.1875 C-8.73223125 31.43483137 -8.73223125 31.43483137 -4.875 30.1875 C-4.875 28.5375 -4.875 26.8875 -4.875 25.1875 C-7.185 24.1975 -9.495 23.2075 -11.875 22.1875 C-11.875 21.5275 -11.875 20.8675 -11.875 20.1875 C-10.555 20.1875 -9.235 20.1875 -7.875 20.1875 C-7.545 20.8475 -7.215 21.5075 -6.875 22.1875 C-6.215 22.1875 -5.555 22.1875 -4.875 22.1875 C-5.205 20.8675 -5.535 19.5475 -5.875 18.1875 C-8.92763664 17.20629536 -10.82236336 17.20629536 -13.875 18.1875 Z M-3.875 18.1875 C-3.875 18.5175 -3.875 18.8475 -3.875 19.1875 C-2.225 19.1875 -0.575 19.1875 1.125 19.1875 C1.125 23.1475 1.125 27.1075 1.125 31.1875 C1.785 31.1875 2.445 31.1875 3.125 31.1875 C3.125 27.2275 3.125 23.2675 3.125 19.1875 C4.445 18.8575 5.765 18.5275 7.125 18.1875 C3.495 18.1875 -0.135 18.1875 -3.875 18.1875 Z M9.125 18.1875 C9.125 22.4775 9.125 26.7675 9.125 31.1875 C12.425 31.1875 15.725 31.1875 19.125 31.1875 C19.125 30.5275 19.125 29.8675 19.125 29.1875 C16.485 29.1875 13.845 29.1875 11.125 29.1875 C11.125 27.8675 11.125 26.5475 11.125 25.1875 C13.435 25.1875 15.745 25.1875 18.125 25.1875 C18.125 24.5275 18.125 23.8675 18.125 23.1875 C15.815 23.1875 13.505 23.1875 11.125 23.1875 C11.125 21.8675 11.125 20.5475 11.125 19.1875 C13.765 19.1875 16.405 19.1875 19.125 19.1875 C19.125 18.8575 19.125 18.5275 19.125 18.1875 C15.825 18.1875 12.525 18.1875 9.125 18.1875 Z M26.125 18.1875 C26.125 20.4975 26.125 22.8075 26.125 25.1875 C26.455 25.1875 26.785 25.1875 27.125 25.1875 C27.125 22.8775 27.125 20.5675 27.125 18.1875 C26.795 18.1875 26.465 18.1875 26.125 18.1875 Z M26.125 27.1875 C26.125 29.1675 26.125 31.1475 26.125 33.1875 C26.455 33.1875 26.785 33.1875 27.125 33.1875 C27.125 31.2075 27.125 29.2275 27.125 27.1875 C26.795 27.1875 26.465 27.1875 26.125 27.1875 Z M25.125 33.1875 C26.125 35.1875 26.125 35.1875 26.125 35.1875 Z M24.125 35.1875 C22.805 37.8275 21.485 40.4675 20.125 43.1875 C20.785 43.1875 21.445 43.1875 22.125 43.1875 C23.89695874 40.90106188 23.89695874 40.90106188 25.125 38.1875 C24.795 37.1975 24.465 36.2075 24.125 35.1875 Z " fill="#080149" transform="translate(199.875,38.8125)"/>
<path d="M0 0 C-0.47050781 0.4846875 -0.94101563 0.969375 -1.42578125 1.46875 C-8.05364597 8.60433935 -10.62232658 14.43354526 -10.36328125 24.25 C-9.78656479 28.61568162 -8.08131622 32.16399747 -6 36 C-5.33056469 37.33194542 -4.66308004 38.66487938 -4 40 C-4.91523438 40.06058594 -5.83046875 40.12117188 -6.7734375 40.18359375 C-7.96195313 40.26738281 -9.15046875 40.35117188 -10.375 40.4375 C-11.55835938 40.51871094 -12.74171875 40.59992188 -13.9609375 40.68359375 C-16.91518901 40.81084936 -16.91518901 40.81084936 -19 42 C-17.515 41.505 -17.515 41.505 -16 41 C-7.20313194 39.80797157 -0.19595522 41.82055001 7 47 C13.49125848 53.88095667 15.37824274 60.46575857 15.20703125 69.7734375 C14.54550884 76.88792382 10.13994703 82.3730797 5 87 C-1.64035191 91.68331463 -7.96857205 93.20299563 -16 92 C-22.63082362 90.45950562 -26.93267302 88.00915174 -30.68359375 82.28125 C-31.11800781 81.5284375 -31.55242187 80.775625 -32 80 C-32.48597656 79.1646875 -32.97195312 78.329375 -33.47265625 77.46875 C-35.94918351 72.88820933 -37.70320899 69.34438834 -37 64 C-37.66 64 -38.32 64 -39 64 C-41.67702748 48.9417204 -39.42010354 33.78830086 -31.08984375 20.80859375 C-25.63768084 13.48129444 -10.7378997 -3.5792999 0 0 Z M-29.5 46.8125 C-30.1084375 47.33457031 -30.716875 47.85664062 -31.34375 48.39453125 C-33.21823043 50.09837551 -33.21823043 50.09837551 -35 53 C-34.67 53.99 -34.34 54.98 -34 56 C-33.61328125 55.46890625 -33.2265625 54.9378125 -32.828125 54.390625 C-30.08649307 50.67177773 -27.40892784 47.14670262 -24 44 C-26.71534532 44 -27.47467717 45.0489244 -29.5 46.8125 Z M-11 48 C-14.26506859 60.19677928 -14.26506859 60.19677928 -11 72 C-18.28701103 73.49477149 -25.02639535 73.86096601 -32 71 C-30.95717076 76.47485352 -28.54536192 78.71591142 -24.140625 81.7421875 C-17.81189489 85.46089388 -10.71792512 85.99817259 -3.63671875 84.5 C1.58354231 82.95585555 5.19301103 80.9021637 9 77 C9.6778208 74.91123967 9.6778208 74.91123967 10 73 C9.38253906 73.02320312 8.76507813 73.04640625 8.12890625 73.0703125 C2.12117697 73.19833108 -3.20249382 72.56840747 -9 71 C-8.67 70.030625 -8.34 69.06125 -8 68.0625 C-6.03157196 61.10270086 -6.6964218 54.76676096 -9 48 C-9.66 48 -10.32 48 -11 48 Z M-36 56 C-35 58 -35 58 -35 58 Z M-37 58 C-36 62 -36 62 -36 62 Z " fill="#070147" transform="translate(184,43)"/>
<path d="M0 0 C6.21702833 4.21493446 9.47424182 9.73131921 11.82421875 16.78125 C13.1368593 24.75678754 10.08110429 30.20706706 5.82421875 36.78125 C5.44136719 37.40515625 5.05851562 38.0290625 4.6640625 38.671875 C1.25716663 43.50746914 -3.6401756 45.37763489 -9.17578125 46.78125 C-16.80841617 47.84677453 -23.49272506 46.6473866 -30.17578125 42.78125 C-35.26599379 38.92946081 -39.44242739 33.99670823 -41.17578125 27.78125 C-42.12075975 20.00709697 -41.85194746 13.24763165 -37.17578125 6.78125 C-27.96107937 -4.87263768 -12.58257091 -7.0480469 0 0 Z M-16.17578125 1.78125 C-16.17578125 2.77125 -16.17578125 3.76125 -16.17578125 4.78125 C-19.14578125 4.45125 -22.11578125 4.12125 -25.17578125 3.78125 C-24.84578125 5.10125 -24.51578125 6.42125 -24.17578125 7.78125 C-26.15578125 7.78125 -28.13578125 7.78125 -30.17578125 7.78125 C-31.18689218 10.83038228 -31.18689218 10.83038228 -30.17578125 13.78125 C-31.49578125 13.78125 -32.81578125 13.78125 -34.17578125 13.78125 C-33.84578125 15.10125 -33.51578125 16.42125 -33.17578125 17.78125 C-33.83578125 18.11125 -34.49578125 18.44125 -35.17578125 18.78125 C-35.17578125 20.10125 -35.17578125 21.42125 -35.17578125 22.78125 C-34.18578125 22.78125 -33.19578125 22.78125 -32.17578125 22.78125 C-32.50578125 25.09125 -32.83578125 27.40125 -33.17578125 29.78125 C-31.85578125 30.11125 -30.53578125 30.44125 -29.17578125 30.78125 C-29.17578125 32.10125 -29.17578125 33.42125 -29.17578125 34.78125 C-26.22848588 35.93936388 -26.22848588 35.93936388 -23.17578125 35.78125 C-22.84578125 36.77125 -22.51578125 37.76125 -22.17578125 38.78125 C-20.00703873 38.27521008 -18.17610498 37.78141187 -16.17578125 36.78125 C-16.17578125 37.77125 -16.17578125 38.76125 -16.17578125 39.78125 C-14.85578125 39.78125 -13.53578125 39.78125 -12.17578125 39.78125 C-12.17578125 38.79125 -12.17578125 37.80125 -12.17578125 36.78125 C-10.19578125 36.28625 -10.19578125 36.28625 -8.17578125 35.78125 C-8.17578125 36.44125 -8.17578125 37.10125 -8.17578125 37.78125 C-6.85578125 37.78125 -5.53578125 37.78125 -4.17578125 37.78125 C-3.84578125 36.46125 -3.51578125 35.14125 -3.17578125 33.78125 C-1.52578125 33.45125 0.12421875 33.12125 1.82421875 32.78125 C2.15421875 31.46125 2.48421875 30.14125 2.82421875 28.78125 C3.48421875 28.78125 4.14421875 28.78125 4.82421875 28.78125 C4.82421875 27.46125 4.82421875 26.14125 4.82421875 24.78125 C4.16421875 24.78125 3.50421875 24.78125 2.82421875 24.78125 C2.82421875 24.12125 2.82421875 23.46125 2.82421875 22.78125 C3.81421875 22.78125 4.80421875 22.78125 5.82421875 22.78125 C5.82421875 21.46125 5.82421875 20.14125 5.82421875 18.78125 C4.83421875 18.78125 3.84421875 18.78125 2.82421875 18.78125 C2.82421875 17.46125 2.82421875 16.14125 2.82421875 14.78125 C3.48421875 14.78125 4.14421875 14.78125 4.82421875 14.78125 C4.03303971 12.78141466 4.03303971 12.78141466 2.82421875 10.78125 C1.83421875 10.45125 0.84421875 10.12125 -0.17578125 9.78125 C-0.17578125 8.79125 -0.17578125 7.80125 -0.17578125 6.78125 C-1.16578125 6.45125 -2.15578125 6.12125 -3.17578125 5.78125 C-3.17578125 6.44125 -3.17578125 7.10125 -3.17578125 7.78125 C-3.83578125 7.45125 -4.49578125 7.12125 -5.17578125 6.78125 C-5.80078125 4.71875 -5.80078125 4.71875 -6.17578125 2.78125 C-7.49578125 2.78125 -8.81578125 2.78125 -10.17578125 2.78125 C-10.17578125 3.44125 -10.17578125 4.10125 -10.17578125 4.78125 C-10.83578125 4.78125 -11.49578125 4.78125 -12.17578125 4.78125 C-12.17578125 3.79125 -12.17578125 2.80125 -12.17578125 1.78125 C-13.49578125 1.78125 -14.81578125 1.78125 -16.17578125 1.78125 Z " fill="#060341" transform="translate(241.17578125,88.21875)"/>
<path d="M0 0 C2 1 2 1 3.75 4.25 C7.22444901 10.52974488 13.03379337 14.46384287 19.84375 16.5703125 C26.02613485 17.80230948 32.87644439 17.32401202 39 16 C31.3194136 24.70466459 20.20647755 30.09907213 8.67480469 31.22753906 C-6.83085771 32.1924707 -21.5761916 30.03239506 -33.7265625 19.50390625 C-34.8646926 18.38167182 -35.94249136 17.19850979 -37 16 C-36.236875 16.165 -35.47375 16.33 -34.6875 16.5 C-24.00339581 17.94869209 -16.66919442 16.9248269 -7.75 10.75 C-4.48180044 7.48180044 -2.25021106 4.0125445 0 0 Z " fill="#08014C" transform="translate(199,118)"/>
<path d="M0 0 C2 1 2 1 3.125 4.0625 C3.41375 5.031875 3.7025 6.00125 4 7 C2.68 6.34 1.36 5.68 0 5 C-0.32871094 5.50789063 -0.65742188 6.01578125 -0.99609375 6.5390625 C-5.69751275 13.34274203 -11.31816163 17.62738369 -19 20.6875 C-19.99 21.120625 -20.98 21.55375 -22 22 C-22.33 22.99 -22.66 23.98 -23 25 C-22.22914063 25.13277344 -21.45828125 25.26554687 -20.6640625 25.40234375 C-19.66117188 25.57894531 -18.65828125 25.75554687 -17.625 25.9375 C-16.12839844 26.19853516 -16.12839844 26.19853516 -14.6015625 26.46484375 C-12 27 -12 27 -10 28 C2.12167484 29.05159917 13.68117492 28.65849165 25 24 C25.99 23.67 26.98 23.34 28 23 C27.67 21.35 27.34 19.7 27 18 C30.96 17.34 34.92 16.68 39 16 C31.3194136 24.70466459 20.20647755 30.09907213 8.67480469 31.22753906 C-6.83085771 32.1924707 -21.5761916 30.03239506 -33.7265625 19.50390625 C-34.8646926 18.38167182 -35.94249136 17.19850979 -37 16 C-36.236875 16.165 -35.47375 16.33 -34.6875 16.5 C-24.00339581 17.94869209 -16.66919442 16.9248269 -7.75 10.75 C-4.48180044 7.48180044 -2.25021106 4.0125445 0 0 Z " fill="#06033B" transform="translate(199,118)"/>
<path d="M0 0 C0.80566406 0.04833984 1.61132812 0.09667969 2.44140625 0.14648438 C3.28316406 0.20255859 4.12492188 0.25863281 4.9921875 0.31640625 C6.26642578 0.3947168 6.26642578 0.3947168 7.56640625 0.47460938 C9.66697874 0.60442003 11.76712941 0.74102365 13.8671875 0.87890625 C13.8671875 1.53890625 13.8671875 2.19890625 13.8671875 2.87890625 C11.8871875 3.20890625 9.9071875 3.53890625 7.8671875 3.87890625 C7.8671875 7.83890625 7.8671875 11.79890625 7.8671875 15.87890625 C8.5271875 15.87890625 9.1871875 15.87890625 9.8671875 15.87890625 C9.8671875 11.91890625 9.8671875 7.95890625 9.8671875 3.87890625 C12.8371875 4.37390625 12.8371875 4.37390625 15.8671875 4.87890625 C15.8671875 8.50890625 15.8671875 12.13890625 15.8671875 15.87890625 C12.8971875 16.20890625 9.9271875 16.53890625 6.8671875 16.87890625 C4.8671875 12.87890625 4.8671875 12.87890625 4.8671875 11.87890625 C4.6609375 12.68328125 4.4546875 13.48765625 4.2421875 14.31640625 C3.7884375 15.16203125 3.3346875 16.00765625 2.8671875 16.87890625 C-0.2578125 17.69140625 -0.2578125 17.69140625 -3.1328125 17.87890625 C-2.1428125 17.54890625 -1.1528125 17.21890625 -0.1328125 16.87890625 C-0.1328125 16.21890625 -0.1328125 15.55890625 -0.1328125 14.87890625 C0.5271875 14.87890625 1.1871875 14.87890625 1.8671875 14.87890625 C1.91886277 12.45623539 1.91886277 12.45623539 0.8671875 9.87890625 C-2.60588578 8.0090688 -2.60588578 8.0090688 -6.1328125 6.87890625 C-5.8028125 5.88890625 -5.4728125 4.89890625 -5.1328125 3.87890625 C-3.4828125 4.20890625 -1.8328125 4.53890625 -0.1328125 4.87890625 C-0.1328125 5.53890625 -0.1328125 6.19890625 -0.1328125 6.87890625 C0.5271875 6.87890625 1.1871875 6.87890625 1.8671875 6.87890625 C1.5371875 5.88890625 1.2071875 4.89890625 0.8671875 3.87890625 C-1.4428125 3.54890625 -3.7528125 3.21890625 -6.1328125 2.87890625 C-6.1328125 2.21890625 -6.1328125 1.55890625 -6.1328125 0.87890625 C-3.77622853 -0.29938574 -2.60708014 -0.16523747 0 0 Z " fill="#06033A" transform="translate(193.1328125,54.12109375)"/>
<path d="M0 0 C5.08067793 2.2048225 5.08067793 2.2048225 6.3125 4.4375 C6.19077298 7.84585667 5.97082976 10.39803196 4.125 13.3125 C1.47050608 14.96011692 -0.57077487 15.31283099 -3.6875 15.4375 C-7.21656067 13.83338152 -8.51522908 12.69590638 -10.6875 9.4375 C-10.6875 6.5 -10.6875 6.5 -9.6875 3.4375 C-6.23147588 0.14604846 -4.77411741 -0.7282552 0 0 Z " fill="#070143" transform="translate(228.6875,101.5625)"/>
<path d="M0 0 C6.93368772 0.93698483 13.63870423 2.96545024 20.3125 5.01953125 C31.18664617 7.91085613 42.0273458 8.594599 53.08203125 6.5078125 C55.79438235 6.03578353 58.25517132 5.90867483 61 6 C61.33 5.34 61.66 4.68 62 4 C63.92578125 3.40234375 63.92578125 3.40234375 66.3125 2.9375 C67.09238281 2.78152344 67.87226563 2.62554687 68.67578125 2.46484375 C69.44277344 2.31144531 70.20976562 2.15804687 71 2 C71.69480469 1.79503906 72.38960938 1.59007812 73.10546875 1.37890625 C75 1 75 1 78 2 C55.59446597 10.35028438 34.67555401 12.69570246 11.375 5.5625 C10.69985352 5.35729736 10.02470703 5.15209473 9.32910156 4.94067383 C5.72543019 3.77545029 2.86562445 2.49469337 0 0 Z " fill="#040234" transform="translate(161,176)"/>
<path d="M0 0 C0 0.99 0 1.98 0 3 C-0.61875 3.28875 -1.2375 3.5775 -1.875 3.875 C-4.13325765 4.93720042 -4.13325765 4.93720042 -6 7 C-2.52852158 7.74957157 -2.52852158 7.74957157 1 8 C1 8.66 1 9.32 1 10 C-0.98 10.33 -2.96 10.66 -5 11 C-5 12.65 -5 14.3 -5 16 C-6.32 16 -7.64 16 -9 16 C-8.34 17.65 -7.68 19.3 -7 21 C-8.32 21 -9.64 21 -11 21 C-10.48964169 16.6109185 -9.47785723 13.66291938 -7 10 C-10.28788824 13.11016455 -12.83735988 16.01618925 -15 20 C-16 17 -16 17 -15.3984375 15.1328125 C-11.66813788 7.8145911 -7.20059337 3.81207884 0 0 Z " fill="#040235" transform="translate(216,86)"/>
<path d="M0 0 C0.66 0 1.32 0 2 0 C1.98952637 0.62342285 1.97905273 1.2468457 1.96826172 1.88916016 C1.26808319 21.28320649 1.26808319 21.28320649 5.1328125 40.12109375 C6.00749706 43.02488887 6.06725922 44.22512604 5 47 C-0.59100894 31.14976107 -1.42041491 16.58430383 0 0 Z " fill="#040231" transform="translate(109,79)"/>
<path d="M0 0 C0.99 0.33 1.98 0.66 3 1 C4.0625 4.125 4.0625 4.125 5 8 C5.5259375 9.6396875 5.5259375 9.6396875 6.0625 11.3125 C8.61638957 21.35779896 8.10741713 31.71182605 8 42 C7.01 42.495 7.01 42.495 6 43 C6.02320313 42.2471875 6.04640625 41.494375 6.0703125 40.71875 C6.31233705 26.47387635 4.34864868 13.51036484 0 0 Z " fill="#030132" transform="translate(276,62)"/>
<path d="M0 0 C2.5625 0.375 2.5625 0.375 4.4375 2.0625 C5.86374388 4.99422354 5.60480389 6.32826554 4.5625 9.375 C2.5625 11.375 2.5625 11.375 0.125 11.75 C-2.4375 11.375 -2.4375 11.375 -4.3125 9.6875 C-5.73874388 6.75577646 -5.47980389 5.42173446 -4.4375 2.375 C-2.4375 0.375 -2.4375 0.375 0 0 Z M-2.4375 3.375 C-2.1075 5.025 -1.7775 6.675 -1.4375 8.375 C-0.1175 8.375 1.2025 8.375 2.5625 8.375 C2.2325 6.725 1.9025 5.075 1.5625 3.375 C0.2425 3.375 -1.0775 3.375 -2.4375 3.375 Z " fill="#040227" transform="translate(168.4375,29.625)"/>
<path d="M0 0 C0.99 0.33 1.98 0.66 3 1 C3.6875 3.0625 3.6875 3.0625 4 5 C4.99 4.34 5.98 3.68 7 3 C7 6.39593478 6.47834052 7.06619881 4.5 9.6875 C4.0359375 10.31011719 3.571875 10.93273438 3.09375 11.57421875 C2.7328125 12.04472656 2.371875 12.51523437 2 13 C1.34 12.67 0.68 12.34 0 12 C-0.625 9.4375 -0.625 9.4375 -1 7 C-1.33 7.66 -1.66 8.32 -2 9 C-2.99 9 -3.98 9 -5 9 C-3.7508258 5.54074837 -2.32472205 2.85306797 0 0 Z " fill="#03022C" transform="translate(238,34)"/>
<path d="M0 0 C0.66 0.33 1.32 0.66 2 1 C0.50011061 3.99977878 -2.05159126 4.55588143 -5 6 C-5.66 6.66 -6.32 7.32 -7 8 C-8.65438613 8.69658363 -10.32254318 9.36096883 -12 10 C-12.62132812 10.32742187 -13.24265625 10.65484375 -13.8828125 10.9921875 C-16.09218876 12.04388321 -18.11167389 12.60971046 -20.5 13.125 C-21.2528125 13.29257813 -22.005625 13.46015625 -22.78125 13.6328125 C-25 14 -25 14 -29 14 C-29 13.34 -29 12.68 -29 12 C-27.99582031 11.72027344 -26.99164063 11.44054687 -25.95703125 11.15234375 C-17.45983907 8.69147674 -10.118369 5.78980197 -2.4765625 1.2578125 C-1.25066406 0.63519531 -1.25066406 0.63519531 0 0 Z " fill="#050237" transform="translate(246,161)"/>
<path d="M0 0 C3.0625 0.3125 3.0625 0.3125 5 1.5 C6.0625 3.3125 6.0625 3.3125 5.875 5.875 C5.0625 8.3125 5.0625 8.3125 3.0625 10.3125 C-0.5625 9.9375 -0.5625 9.9375 -3.9375 9.3125 C-4.5625 5.9375 -4.5625 5.9375 -4.9375 2.3125 C-2.9375 0.3125 -2.9375 0.3125 0 0 Z M-1.9375 3.3125 C-1.9375 4.6325 -1.9375 5.9525 -1.9375 7.3125 C-0.2875 7.3125 1.3625 7.3125 3.0625 7.3125 C3.0625 5.9925 3.0625 4.6725 3.0625 3.3125 C1.4125 3.3125 -0.2375 3.3125 -1.9375 3.3125 Z " fill="#06042C" transform="translate(131.9375,93.6875)"/>
<path d="M0 0 C1 3 1 3 0 6 C0.99 6.33 1.98 6.66 3 7 C3 7.66 3 8.32 3 9 C0.83125748 8.49396008 -0.99967627 8.00016187 -3 7 C-3 8.32 -3 9.64 -3 11 C-3.99 11 -4.98 11 -6 11 C-6.99 7.7 -7.98 4.4 -9 1 C-3.375 -1.125 -3.375 -1.125 0 0 Z M-6 2 C-5.67 2.66 -5.34 3.32 -5 4 C-4.01 4 -3.02 4 -2 4 C-2 3.34 -2 2.68 -2 2 C-3.32 2 -4.64 2 -6 2 Z " fill="#050329" transform="translate(183,26)"/>
<path d="M0 0 C0.99 0 1.98 0 3 0 C3.33 1.65 3.66 3.3 4 5 C4.99 4.01 5.98 3.02 7 2 C8 5 8 5 7.22265625 6.82421875 C6.1484375 8.54947917 5.07421875 10.27473958 4 12 C3.01 12 2.02 12 1 12 C0.67 10.35 0.34 8.7 0 7 C-0.99 7.99 -1.98 8.98 -3 10 C-3.33 9.34 -3.66 8.68 -4 8 C-3.22265625 6.0546875 -3.22265625 6.0546875 -2.0625 3.875 C-1.49208984 2.78832031 -1.49208984 2.78832031 -0.91015625 1.6796875 C-0.60980469 1.12539062 -0.30945313 0.57109375 0 0 Z " fill="#060432" transform="translate(167,148)"/>
<path d="M0 0 C0.66 0.33 1.32 0.66 2 1 C1.34 2.65 0.68 4.3 0 6 C1.32 5.67 2.64 5.34 4 5 C3.875 6.8125 3.875 6.8125 3 9 C-2.03571429 12 -2.03571429 12 -5 12 C-4.125 7.25 -4.125 7.25 -3 5 C-4.65 5.66 -6.3 6.32 -8 7 C-8 6.01 -8 5.02 -8 4 C-6.71349294 3.30289269 -5.42059335 2.61757124 -4.125 1.9375 C-3.40570313 1.55464844 -2.68640625 1.17179687 -1.9453125 0.77734375 C-1.30335938 0.52082031 -0.66140625 0.26429687 0 0 Z " fill="#05042C" transform="translate(142,120)"/>
<path d="M0 0 C3 1 3 1 4.625 4.0625 C6.18696813 8.00422062 6.63079845 11.7911023 7 16 C6.34 16.33 5.68 16.66 5 17 C4.07542341 19.88006394 4.07542341 19.88006394 4 23 C5.31318262 24.89958081 5.31318262 24.89958081 7 26 C4.69 25.67 2.38 25.34 0 25 C0.33 23.865625 0.66 22.73125 1 21.5625 C2.87122604 13.98403453 2.16068404 7.42735138 0 0 Z " fill="#060438" transform="translate(174,90)"/>
<path d="M0 0 C0.99 0.33 1.98 0.66 3 1 C3.94921875 3.06640625 3.94921875 3.06640625 4.6875 5.5625 C5.06455078 6.80193359 5.06455078 6.80193359 5.44921875 8.06640625 C5.63097656 8.70449219 5.81273437 9.34257812 6 10 C5.195625 9.835 4.39125 9.67 3.5625 9.5 C1.2715557 8.96808161 1.2715557 8.96808161 0 9 C0 9.99 0 10.98 0 12 C-3 11 -3 11 -3.94921875 9.15234375 C-4.19285156 8.42144531 -4.43648437 7.69054687 -4.6875 6.9375 C-4.93886719 6.20402344 -5.19023437 5.47054687 -5.44921875 4.71484375 C-5.63097656 4.14894531 -5.81273437 3.58304688 -6 3 C-4 3 -2 3 0 3 C0 2.01 0 1.02 0 0 Z " fill="#05032A" transform="translate(226,150)"/>
<path d="M0 0 C2.4375 0.75 2.4375 0.75 4.4375 2.75 C4.75 5.75 4.75 5.75 4.4375 8.75 C1.4375 10.75 1.4375 10.75 -1.125 10.5 C-3.5625 9.75 -3.5625 9.75 -5.5625 7.75 C-5.875 4.75 -5.875 4.75 -5.5625 1.75 C-2.5625 -0.25 -2.5625 -0.25 0 0 Z M-2.5625 2.75 C-2.8925 3.74 -3.2225 4.73 -3.5625 5.75 C-2.5725 6.74 -1.5825 7.73 -0.5625 8.75 C0.4275 8.09 1.4175 7.43 2.4375 6.75 C2.1075 5.43 1.7775 4.11 1.4375 2.75 C0.1175 2.75 -1.2025 2.75 -2.5625 2.75 Z " fill="#090530" transform="translate(237.5625,145.25)"/>
<path d="M0 0 C0.66 0.33 1.32 0.66 2 1 C1.34 2.32 0.68 3.64 0 5 C0.98742187 4.97679688 1.97484375 4.95359375 2.9921875 4.9296875 C4.27351562 4.91164063 5.55484375 4.89359375 6.875 4.875 C8.78925781 4.84019531 8.78925781 4.84019531 10.7421875 4.8046875 C14 5 14 5 16 7 C17.32407669 7.68486725 18.65909241 8.34870203 20 9 C22.75 10.4375 22.75 10.4375 25 12 C25 12.99 25 13.98 25 15 C22.02885512 13.95136063 19.72702114 12.81010166 17.125 11 C10.34231976 6.65908465 3.79066215 6.74641606 -4 7 C-4 6.34 -4 5.68 -4 5 C-3.34 5 -2.68 5 -2 5 C-1.34 3.35 -0.68 1.7 0 0 Z " fill="#060438" transform="translate(224,77)"/>
<path d="M0 0 C0.33 2.64 0.66 5.28 1 8 C0.01 7.67 -0.98 7.34 -2 7 C-2 5.68 -2 4.36 -2 3 C-2.33 4.65 -2.66 6.3 -3 8 C-3.66 8 -4.32 8 -5 8 C-5.33 6.68 -5.66 5.36 -6 4 C-6.66 4 -7.32 4 -8 4 C-7.67 5.65 -7.34 7.3 -7 9 C-7.99 9 -8.98 9 -10 9 C-10 6.36 -10 3.72 -10 1 C-3.375 0 -3.375 0 0 0 Z " fill="#06042F" transform="translate(272,82)"/>
<path d="M0 0 C0.66 0.33 1.32 0.66 2 1 C1.67 2.32 1.34 3.64 1 5 C1.66 4.01 2.32 3.02 3 2 C3.99 2 4.98 2 6 2 C5.67 3.65 5.34 5.3 5 7 C5.45375 6.34 5.9075 5.68 6.375 5 C6.91125 4.34 7.4475 3.68 8 3 C8.66 3 9.32 3 10 3 C9.1875 6.4375 9.1875 6.4375 8 10 C3.82412255 11.39195915 1.86525224 9.82323219 -2 8 C-1.125 2.25 -1.125 2.25 0 0 Z " fill="#06042D" transform="translate(133,65)"/>
<path d="M0 0 C1.67542976 0.28604898 3.34385343 0.61781233 5 1 C5.33 2.65 5.66 4.3 6 6 C4.02 6.99 4.02 6.99 2 8 C2.33 6.35 2.66 4.7 3 3 C2.34 3 1.68 3 1 3 C1 4.65 1 6.3 1 8 C-0.65614657 8.38218767 -2.32457024 8.71395102 -4 9 C-5 8 -5 8 -5.0625 4.9375 C-5.041875 3.968125 -5.02125 2.99875 -5 2 C-4.01 1.67 -3.02 1.34 -2 1 C-2.33 2.65 -2.66 4.3 -3 6 C-2.34 6 -1.68 6 -1 6 C-1.020625 5.195625 -1.04125 4.39125 -1.0625 3.5625 C-1 1 -1 1 0 0 Z " fill="#060429" transform="translate(134,106)"/>
<path d="M0 0 C0.99 0.66 1.98 1.32 3 2 C2.42647107 5.87132028 0.51295648 8.08172796 -2 11 C-6.875 9.125 -6.875 9.125 -8 8 C-8.29573841 5.19048514 -8.38243085 3.58371024 -6.8125 1.1875 C-4.37235669 -0.41121458 -2.86722793 -0.35840349 0 0 Z M-4 2 C-4.66 3.32 -5.32 4.64 -6 6 C-4.515 6.99 -4.515 6.99 -3 8 C-2.01 6.35 -1.02 4.7 0 3 C-1.32 2.67 -2.64 2.34 -4 2 Z " fill="#06032C" transform="translate(162,143)"/>
<path d="M0 0 C2.97 0.33 5.94 0.66 9 1 C9.33 1.99 9.66 2.98 10 4 C7.03 3.67 4.06 3.34 1 3 C1 3.99 1 4.98 1 6 C3.64 6.33 6.28 6.66 9 7 C8.67 7.99 8.34 8.98 8 10 C0.47028424 8.54263566 0.47028424 8.54263566 -1.625 6.125 C-2 4 -2 4 0 0 Z " fill="#07052D" transform="translate(262,105)"/>
<path d="M0 0 C0.99 0.33 1.98 0.66 3 1 C3 2.65 3 4.3 3 6 C5.97 6.495 5.97 6.495 9 7 C9.33 8.32 9.66 9.64 10 11 C9.01 11.33 8.02 11.66 7 12 C4.8125 10.5625 4.8125 10.5625 3 9 C3.33 10.32 3.66 11.64 4 13 C3.01 13 2.02 13 1 13 C0 12 0 12 -0.09765625 9.27734375 C-0.08605469 8.17519531 -0.07445312 7.07304688 -0.0625 5.9375 C-0.05347656 4.83277344 -0.04445312 3.72804687 -0.03515625 2.58984375 C-0.02355469 1.73519531 -0.01195312 0.88054688 0 0 Z " fill="#05032C" transform="translate(183,57)"/>
<path d="M0 0 C2.64 0 5.28 0 8 0 C8 0.99 8 1.98 8 3 C6.35 3 4.7 3 3 3 C4.32 3.33 5.64 3.66 7 4 C7 4.66 7 5.32 7 6 C5.35 6 3.7 6 2 6 C2 6.66 2 7.32 2 8 C3.65 8 5.3 8 7 8 C7 8.99 7 9.98 7 11 C4.36 10.67 1.72 10.34 -1 10 C-0.67 6.7 -0.34 3.4 0 0 Z " fill="#07042A" transform="translate(203,23)"/>
<path d="M0 0 C2.36600088 3.04919263 4.39305118 6.22888188 6.4375 9.5 C11.09651835 16.57125776 16.85196 22.2208424 23 28 C19.19419101 28 17.74810455 26.5176002 14.9765625 24.05859375 C11.83053693 20.78200191 9.28812844 17.11377214 6.69921875 13.390625 C5.07254949 10.96142331 5.07254949 10.96142331 3 9 C2.505 8.319375 2.01 7.63875 1.5 6.9375 C0.13712374 4.88794828 0.13712374 4.88794828 -2 4 C-2 3.01 -2 2.02 -2 1 C-1.34 0.67 -0.68 0.34 0 0 Z " fill="#040132" transform="translate(126,129)"/>
<path d="M0 0 C0.99 0 1.98 0 3 0 C3.05404449 2.75026417 3.09369306 5.49946203 3.125 8.25 C3.15013672 9.41595703 3.15013672 9.41595703 3.17578125 10.60546875 C3.23662606 17.72431144 3.23662606 17.72431144 1 21 C0.73445312 20.32453125 0.46890625 19.6490625 0.1953125 18.953125 C-0.15789062 18.06109375 -0.51109375 17.1690625 -0.875 16.25 C-1.22304687 15.36828125 -1.57109375 14.4865625 -1.9296875 13.578125 C-2.8646709 11.3259752 -3.87780794 9.16350541 -5 7 C-2.525 7.99 -2.525 7.99 0 9 C0.93380961 4.46859347 0.93380961 4.46859347 0 0 Z " fill="#040238" transform="translate(253,86)"/>
<path d="M0 0 C1.69141656 0.08963062 3.37959602 0.24577676 5.0625 0.4375 C6.44115234 0.59025391 6.44115234 0.59025391 7.84765625 0.74609375 C8.55792969 0.82988281 9.26820313 0.91367188 10 1 C10.4807396 6.40832049 10.4807396 6.40832049 8.375 9 C6 10 6 10 2.75 9.1875 C1.38875 8.5996875 1.38875 8.5996875 0 8 C-0.38063221 5.6739143 -0.71269945 3.33944736 -1 1 C-0.67 0.67 -0.34 0.34 0 0 Z M2 3 C2 4.32 2 5.64 2 7 C3.65 7 5.3 7 7 7 C7.33 5.68 7.66 4.36 8 3 C6.02 3 4.04 3 2 3 Z " fill="#060430" transform="translate(263,93)"/>
<path d="M0 0 C0.99 0.33 1.98 0.66 3 1 C3 2.32 3 3.64 3 5 C3.66 4.34 4.32 3.68 5 3 C5.99 3 6.98 3 8 3 C6.84414715 6.91211733 5.64465038 9.8745041 3 13 C1.875 9.25 1.875 9.25 3 7 C-0.11785113 7.64644661 -0.11785113 7.64644661 -1 10 C-1.99 9.67 -2.98 9.34 -4 9 C-2.68 6.03 -1.36 3.06 0 0 Z " fill="#040326" transform="translate(227,28)"/>
<path d="M0 0 C0.66 0.33 1.32 0.66 2 1 C2 2.65 2 4.3 2 6 C3.65 6.33 5.3 6.66 7 7 C4.6870518 9.3129482 3.52095125 9.49580975 0.375 10.125 C-0.44226563 10.29257813 -1.25953125 10.46015625 -2.1015625 10.6328125 C-3.04128906 10.81457031 -3.04128906 10.81457031 -4 11 C-5 8 -5 8 -4.00390625 5.95703125 C-3.52824219 5.24933594 -3.05257812 4.54164063 -2.5625 3.8125 C-2.08941406 3.09707031 -1.61632812 2.38164062 -1.12890625 1.64453125 C-0.75636719 1.10183594 -0.38382813 0.55914062 0 0 Z M-1 6 C0 8 0 8 0 8 Z " fill="#05032C" transform="translate(147,129)"/>
<path d="M0 0 C5.13623978 4.95912807 5.13623978 4.95912807 7 8 C6.67 8.99 6.34 9.98 6 11 C4.54119891 10.85892253 3.08296449 10.71197585 1.625 10.5625 C0.40683594 10.44068359 0.40683594 10.44068359 -0.8359375 10.31640625 C-3 10 -3 10 -5 9 C-5 8.34 -5 7.68 -5 7 C-3.68 7 -2.36 7 -1 7 C-1.020625 6.030625 -1.04125 5.06125 -1.0625 4.0625 C-1 1 -1 1 0 0 Z M1 6 C1 6.66 1 7.32 1 8 C1.66 7.67 2.32 7.34 3 7 C2.34 6.67 1.68 6.34 1 6 Z " fill="#05032E" transform="translate(255,124)"/>
<path d="M0 0 C0.33 0.66 0.66 1.32 1 2 C0.04956626 3.33897583 -0.91059147 4.67105427 -1.875 6 C-2.40867187 6.7425 -2.94234375 7.485 -3.4921875 8.25 C-3.98976563 8.8275 -4.48734375 9.405 -5 10 C-5.66 10 -6.32 10 -7 10 C-7 8.35 -7 6.7 -7 5 C-8.32 4.34 -9.64 3.68 -11 3 C-11 2.34 -11 1.68 -11 1 C-7.26562152 0.12132271 -3.83225427 -0.08912219 0 0 Z M-5 3 C-4.67 3.66 -4.34 4.32 -4 5 C-3.67 4.34 -3.34 3.68 -3 3 C-3.66 3 -4.32 3 -5 3 Z " fill="#050431" transform="translate(263,58)"/>
<path d="M0 0 C8.91 0.66 17.82 1.32 27 2 C27 2.66 27 3.32 27 4 C9.14350797 4.18451025 9.14350797 4.18451025 1 3 C0.67 2.01 0.34 1.02 0 0 Z " fill="#050135" transform="translate(181,173)"/>
<path d="M0 0 C1.5625 2.3125 1.5625 2.3125 2 5 C0.8125 7.3125 0.8125 7.3125 -1 9 C-1.99 9 -2.98 9 -4 9 C-3.67 8.01 -3.34 7.02 -3 6 C-2.34 6 -1.68 6 -1 6 C-1.33 5.01 -1.66 4.02 -2 3 C-3.65 2.67 -5.3 2.34 -7 2 C-6.67 3.65 -6.34 5.3 -6 7 C-6.99 6.67 -7.98 6.34 -9 6 C-8.625 3.0625 -8.625 3.0625 -8 0 C-5.01122021 -1.4943899 -3.14997454 -0.91874257 0 0 Z " fill="#07052C" transform="translate(266,117)"/>
<path d="M0 0 C0.85257607 3.22596349 1.4760423 6.46583688 2.0625 9.75 C2.23910156 10.73484375 2.41570312 11.7196875 2.59765625 12.734375 C2.73042969 13.48203125 2.86320313 14.2296875 3 15 C-2.12919186 17.10428384 -6.5610835 17.21755666 -12 17 C-11.505 15.515 -11.505 15.515 -11 14 C-8.03 14 -5.06 14 -2 14 C-0.60229416 10.25308553 -0.60229416 10.25308553 -2 8 C-1.66015625 6.0546875 -1.66015625 6.0546875 -1.0625 3.875 C-0.86785156 3.15054688 -0.67320312 2.42609375 -0.47265625 1.6796875 C-0.31667969 1.12539062 -0.16070312 0.57109375 0 0 Z " fill="#050232" transform="translate(170,100)"/>
<path d="M0 0 C0.78375 0.04125 1.5675 0.0825 2.375 0.125 C3.035 1.445 3.695 2.765 4.375 4.125 C3.385 4.125 2.395 4.125 1.375 4.125 C1.375 3.465 1.375 2.805 1.375 2.125 C0.385 2.455 -0.605 2.785 -1.625 3.125 C-1.955 4.775 -2.285 6.425 -2.625 8.125 C-0.975 7.795 0.675 7.465 2.375 7.125 C2.375 8.115 2.375 9.105 2.375 10.125 C0.625 10.8125 0.625 10.8125 -1.625 11.125 C-3.875 9.6875 -3.875 9.6875 -5.625 8.125 C-4.59375 0.21875 -4.59375 0.21875 0 0 Z " fill="#050324" transform="translate(218.625,24.875)"/>
<path d="M0 0 C0 3.93602341 -1.58022978 4.99361881 -4 8 C-4.35169068 9.32860925 -4.68770276 10.66158328 -5 12 C-5.45890625 12.42667969 -5.9178125 12.85335937 -6.390625 13.29296875 C-8.39708392 15.42117881 -9.15987681 17.45898325 -10.1875 20.1875 C-10.53167969 21.08855469 -10.87585938 21.98960938 -11.23046875 22.91796875 C-11.48441406 23.60503906 -11.73835937 24.29210937 -12 25 C-12.66 25 -13.32 25 -14 25 C-11.77652329 15.23787844 -7.31460467 6.91270332 0 0 Z " fill="#050233" transform="translate(160,56)"/>
<path d="M0 0 C0.66 0 1.32 0 2 0 C2 1.98 2 3.96 2 6 C3.32 6 4.64 6 6 6 C5.67 4.35 5.34 2.7 5 1 C6.32 1.33 7.64 1.66 9 2 C9.125 4.375 9.125 4.375 9 7 C7 9 7 9 4.0625 9.3125 C1 9 1 9 -0.9375 7.8125 C-2 6 -2 6 -1.75 3.375 C-1 1 -1 1 0 0 Z " fill="#06062B" transform="translate(129,82)"/>
<path d="M0 0 C0.97591583 3.38317487 0.85856655 5.5657338 0 9 C-0.66 9 -1.32 9 -2 9 C-2.33 9.99 -2.66 10.98 -3 12 C-3.66 12 -4.32 12 -5 12 C-5.433125 13.11375 -5.433125 13.11375 -5.875 14.25 C-6.82302644 16.56739797 -7.84845911 18.77917115 -9 21 C-9.99 21 -10.98 21 -12 21 C-12 21.66 -12 22.32 -12 23 C-12.99 22.67 -13.98 22.34 -15 22 C-14.50371094 21.50113281 -14.00742187 21.00226563 -13.49609375 20.48828125 C-7.5545638 14.20852379 -3.8058929 7.69503971 0 0 Z " fill="#050233" transform="translate(275,127)"/>
<path d="M0 0 C1.8125 2.5 1.8125 2.5 3 5 C2.34 5.66 1.68 6.32 1 7 C0.34 5.68 -0.32 4.36 -1 3 C-2.32 3 -3.64 3 -5 3 C-4.67 4.32 -4.34 5.64 -4 7 C-3.34 7 -2.68 7 -2 7 C-2 7.99 -2 8.98 -2 10 C-6.875 9.125 -6.875 9.125 -8 8 C-8.29573841 5.19048514 -8.38243085 3.58371024 -6.8125 1.1875 C-4.30260677 -0.45691281 -2.93767401 -0.5875348 0 0 Z " fill="#08052C" transform="translate(255,47)"/>
<path d="M0 0 C-0.47050781 0.53109375 -0.94101563 1.0621875 -1.42578125 1.609375 C-2.04839844 2.31578125 -2.67101562 3.0221875 -3.3125 3.75 C-3.92738281 4.44609375 -4.54226562 5.1421875 -5.17578125 5.859375 C-6.87314734 7.85114506 -8.45477809 9.88898915 -10 12 C-10.6875 10.1875 -10.6875 10.1875 -11 8 C-9.5625 6.25 -9.5625 6.25 -8 5 C-9.1446875 5.5259375 -9.1446875 5.5259375 -10.3125 6.0625 C-13 7 -13 7 -16 6 C-13.9021477 4.79994469 -11.7979751 3.61497017 -9.6875 2.4375 C-8.79514648 1.92413086 -8.79514648 1.92413086 -7.88476562 1.40039062 C-3.33984375 -1.11328125 -3.33984375 -1.11328125 0 0 Z " fill="#040230" transform="translate(184,43)"/>
<path d="M0 0 C0.66 0.66 1.32 1.32 2 2 C1.67 2.66 1.34 3.32 1 4 C1.99 4.33 2.98 4.66 4 5 C3.67 5.66 3.34 6.32 3 7 C2.34 7 1.68 7 1 7 C1.66 8.65 2.32 10.3 3 12 C-0.14027363 11.66354211 -1.05098295 10.94763914 -3.3125 8.625 C-3.869375 7.75875 -4.42625 6.8925 -5 6 C-3.86695008 2.60085025 -2.87481525 1.94745549 0 0 Z " fill="#030225" transform="translate(158,35)"/>
<path d="M0 0 C0.66 0 1.32 0 2 0 C3.02611949 1.65071396 4.02308143 3.31970006 5 5 C5.474375 5.474375 5.94875 5.94875 6.4375 6.4375 C9.71780848 9.71780848 12.06441965 13.80624257 14 18 C14.66 18 15.32 18 16 18 C16.66 19.32 17.32 20.64 18 22 C9.45063008 18.60739289 3.88304451 7.90267853 0 0 Z " fill="#040132" transform="translate(120,138)"/>
<path d="M0 0 C0.66 0 1.32 0 2 0 C2.268125 1.134375 2.53625 2.26875 2.8125 3.4375 C3.4003125 5.2009375 3.4003125 5.2009375 4 7 C4.99 7.33 5.98 7.66 7 8 C7 8.66 7 9.32 7 10 C3.7 9.34 0.4 8.68 -3 8 C-3.33 7.01 -3.66 6.02 -4 5 C-2.68 4.67 -1.36 4.34 0 4 C0 2.68 0 1.36 0 0 Z " fill="#05032A" transform="translate(145,46)"/>
<path d="M0 0 C4.6875 3.61328125 4.6875 3.61328125 6 5 C6 5.99 6 6.98 6 8 C2.90584243 7.57343918 -0.05880129 7.07001562 -3 6 C-4.5625 3.375 -4.5625 3.375 -5 1 C-3.68 1.33 -2.36 1.66 -1 2 C-0.67 1.34 -0.34 0.68 0 0 Z " fill="#08034D" transform="translate(214,124)"/>
<path d="M0 0 C2.63326457 2.63326457 2.71180635 4.32553101 3 8 C2.0625 10.875 2.0625 10.875 1 13 C0.34 13 -0.32 13 -1 13 C-1 11.68 -1 10.36 -1 9 C-1.66 9 -2.32 9 -3 9 C-2.30058404 5.85262818 -1.23921302 2.97411124 0 0 Z " fill="#080249" transform="translate(177,56)"/>
<path d="M0 0 C0 0.66 0 1.32 0 2 C-2.31 2.66 -4.62 3.32 -7 4 C-6.67 5.98 -6.34 7.96 -6 10 C-6.99 9.67 -7.98 9.34 -9 9 C-9.33 6.69 -9.66 4.38 -10 2 C-6.38026598 0.68373308 -3.90432869 0 0 0 Z " fill="#06042E" transform="translate(268,67)"/>
<path d="M0 0 C0.66 0 1.32 0 2 0 C2.061875 0.598125 2.12375 1.19625 2.1875 1.8125 C3.3236757 4.87143458 5.17330142 5.55041099 8 7 C7.67 7.99 7.34 8.98 7 10 C5.906875 9.484375 4.81375 8.96875 3.6875 8.4375 C0.13472753 6.59997888 0.13472753 6.59997888 -3 8 C-1.125 2.25 -1.125 2.25 0 0 Z " fill="#06042C" transform="translate(138,55)"/>
<path d="M0 0 C5.5447497 -0.33947447 9.03311309 0.56012573 14 3 C15.09828125 3.53947266 15.09828125 3.53947266 16.21875 4.08984375 C18.15251264 5.04651154 20.07709967 6.02168229 22 7 C22 7.66 22 8.32 22 9 C17.87420071 7.66989157 13.87216454 6.17656006 9.875 4.5 C8.86179688 4.0771875 7.84859375 3.654375 6.8046875 3.21875 C4.49165041 2.21364196 2.23958658 1.15729833 0 0 Z " fill="#050231" transform="translate(221,15)"/>
<path d="M0 0 C4.81752228 4.55711567 8.04588031 8.32116218 9 15 C7.68 15.33 6.36 15.66 5 16 C4.40267181 13.23735711 4 10.83967231 4 8 C3.525625 7.54625 3.05125 7.0925 2.5625 6.625 C0.55416651 4.53633317 0.38130476 2.8216552 0 0 Z " fill="#050139" transform="translate(190,90)"/>
<path d="M0 0 C2.54405787 0.59522494 5.0848917 1.20082769 7.625 1.8125 C8.69427734 2.0609668 8.69427734 2.0609668 9.78515625 2.31445312 C14.19716375 3.38709715 17.99058318 4.79292355 22 7 C22 7.33 22 7.66 22 8 C18.97140019 8.25959427 17.38101574 8.23284295 14.75 6.625 C11.54032825 4.72837578 8.73114133 4.2221665 5.0859375 3.625 C2.66338903 2.89914278 1.62263338 1.90168498 0 0 Z " fill="#040231" transform="translate(219,2)"/>
<path d="M0 0 C2.97 0 5.94 0 9 0 C9 0.66 9 1.32 9 2 C8.01 2 7.02 2 6 2 C6.33 4.64 6.66 7.28 7 10 C6.01 10 5.02 10 4 10 C3.67 7.69 3.34 5.38 3 3 C2.01 2.67 1.02 2.34 0 2 C0 1.34 0 0.68 0 0 Z " fill="#090726" transform="translate(191,23)"/>
<path d="M0 0 C2.49361571 1.20381448 4.68143083 2.45428722 7 4 C7.99 3.67 8.98 3.34 10 3 C8.79618552 5.49361571 7.54571278 7.68143083 6 10 C5.34 10 4.68 10 4 10 C3.9175 9.2575 3.835 8.515 3.75 7.75 C2.8603054 4.48778646 1.51496251 3.19045122 -1 1 C-0.67 0.67 -0.34 0.34 0 0 Z " fill="#07042D" transform="translate(246,136)"/>
<path d="M0 0 C1.98 0 3.96 0 6 0 C2.91239029 2.37957628 -0.2787664 4.52519756 -3.5625 6.625 C-4.51253906 7.23601563 -5.46257812 7.84703125 -6.44140625 8.4765625 C-9 10 -9 10 -12 11 C-12 10.34 -12 9.68 -12 9 C-11.195625 8.731875 -10.39125 8.46375 -9.5625 8.1875 C-8.716875 7.795625 -7.87125 7.40375 -7 7 C-6.67 6.01 -6.34 5.02 -6 4 C-4.34795544 3.29788106 -2.68076231 2.63028587 -1 2 C-0.67 1.34 -0.34 0.68 0 0 Z " fill="#050130" transform="translate(160,20)"/>
<path d="M0 0 C9.24 0 18.48 0 28 0 C28 0.33 28 0.66 28 1 C27.31373535 1.02505615 26.6274707 1.0501123 25.92041016 1.07592773 C22.82174183 1.19171427 19.72339077 1.31451885 16.625 1.4375 C15.54476562 1.47681641 14.46453125 1.51613281 13.3515625 1.55664062 C12.3203125 1.59853516 11.2890625 1.64042969 10.2265625 1.68359375 C8.79691162 1.73858032 8.79691162 1.73858032 7.33837891 1.79467773 C4.97867651 1.85763465 4.97867651 1.85763465 3 3 C2.01 2.01 1.02 1.02 0 0 Z " fill="#080433" transform="translate(187,1)"/>
<path d="M0 0 C0.33 0 0.66 0 1 0 C1.82536345 5.71905383 2.12753701 11.2267149 2.0625 17 C2.05798828 17.77472656 2.05347656 18.54945312 2.04882812 19.34765625 C2.03719758 21.23180524 2.01926906 23.11591365 2 25 C1.67 25 1.34 25 1 25 C0.93941406 24.05898437 0.87882812 23.11796875 0.81640625 22.1484375 C0.69072266 20.28058594 0.69072266 20.28058594 0.5625 18.375 C0.48128906 17.14523438 0.40007812 15.91546875 0.31640625 14.6484375 C0.05518899 11.04880206 0.05518899 11.04880206 -0.5625 7.71875 C-1.02721704 4.83086554 -0.743301 2.80802598 0 0 Z " fill="#050133" transform="translate(292,76)"/>
<path d="M0 0 C0.33 0.66 0.66 1.32 1 2 C-2.96 7.94 -2.96 7.94 -7 14 C-7.33 13.34 -7.66 12.68 -8 12 C-7.67 11.01 -7.34 10.02 -7 9 C-6.34 9 -5.68 9 -5 9 C-4.855625 8.236875 -4.71125 7.47375 -4.5625 6.6875 C-4 4 -4 4 -3 1 C-2.01 0.67 -1.02 0.34 0 0 Z " fill="#040139" transform="translate(281,137)"/>
<path d="M0 0 C0.99 0.33 1.98 0.66 3 1 C2.07347299 2.17539996 1.13336613 3.34010577 0.1875 4.5 C-0.33457031 5.1496875 -0.85664063 5.799375 -1.39453125 6.46875 C-3 8 -3 8 -6 8 C-4.55746343 4.63408134 -2.66735273 2.48952921 0 0 Z " fill="#030122" transform="translate(154,138)"/>
<path d="M0 0 C1.32 1.65 2.64 3.3 4 5 C3.01 5.33 2.02 5.66 1 6 C1.020625 6.94875 1.04125 7.8975 1.0625 8.875 C1 12 1 12 0 14 C-0.99 14 -1.98 14 -3 14 C-2.01 9.38 -1.02 4.76 0 0 Z " fill="#050237" transform="translate(281,107)"/>
<path d="M0 0 C-2.28149325 1.75499481 -4.57956848 3.37430464 -7 4.9375 C-9.67479026 6.7764183 -11.79968625 8.63043135 -14 11 C-13.84817368 8.34303932 -13.52675976 6.55765476 -11.66796875 4.58984375 C-7.52591685 1.13309484 -5.32252888 -0.14006655 0 0 Z " fill="#040234" transform="translate(164,84)"/>
<path d="M0 0 C3.63 0.66 7.26 1.32 11 2 C10.67 2.99 10.34 3.98 10 5 C6.7 4.34 3.4 3.68 0 3 C0 2.01 0 1.02 0 0 Z " fill="#08052E" transform="translate(129,76)"/>
<path d="M0 0 C0.99 0.33 1.98 0.66 3 1 C1.25447936 2.15264553 -0.49660196 3.29687327 -2.25 4.4375 C-3.22453125 5.07558594 -4.1990625 5.71367187 -5.203125 6.37109375 C-7.58381615 7.7576136 -9.31780307 8.546581 -12 9 C-11.67 8.01 -11.34 7.02 -11 6 C-9.35008418 5.29289322 -7.6792238 4.63437344 -6 4 C-4.96875 3.278125 -3.9375 2.55625 -2.875 1.8125 C-1.451875 0.9153125 -1.451875 0.9153125 0 0 Z " fill="#040235" transform="translate(253,167)"/>
<path d="M0 0 C3 1 3 1 5 5 C1.04 5 -2.92 5 -7 5 C-6.67 4.34 -6.34 3.68 -6 3 C-3.69 3 -1.38 3 1 3 C0.67 2.01 0.34 1.02 0 0 Z " fill="#050434" transform="translate(175,78)"/>
<path d="M0 0 C0.99 0.33 1.98 0.66 3 1 C2.01 3.97 1.02 6.94 0 10 C-0.99 10 -1.98 10 -3 10 C-2.01 6.7 -1.02 3.4 0 0 Z " fill="#05031F" transform="translate(177,152)"/>
<path d="M0 0 C3.14027363 0.33645789 4.05098295 1.05236086 6.3125 3.375 C6.869375 4.24125 7.42625 5.1075 8 6 C7.67 6.99 7.34 7.98 7 9 C4.03595495 6.19195732 1.55500981 3.81684226 0 0 Z " fill="#07052B" transform="translate(240,141)"/>
<path d="M0 0 C3.65866294 4.32387438 5 8.34923902 5 14 C4.34 14 3.68 14 3 14 C0 3.6 0 3.6 0 0 Z " fill="#040231" transform="translate(250,71)"/>
<path d="M0 0 C0.66 0.33 1.32 0.66 2 1 C1.649375 1.61875 1.29875 2.2375 0.9375 2.875 C0.4734375 3.926875 0.4734375 3.926875 0 5 C0.33 5.66 0.66 6.32 1 7 C0.01 7.33 -0.98 7.66 -2 8 C-2.99 7.01 -3.98 6.02 -5 5 C-3.35 3.35 -1.7 1.7 0 0 Z " fill="#090350" transform="translate(277,48)"/>
<path d="M0 0 C0.66 0.33 1.32 0.66 2 1 C0.55922954 4.36179774 -1.24750021 6.59156268 -4 9 C-4.66 9 -5.32 9 -6 9 C-4.47291037 5.56404834 -2.40072955 2.88087546 0 0 Z " fill="#060329" transform="translate(248,41)"/>
<path d="M0 0 C4.95 1.98 4.95 1.98 10 4 C9.01 5.485 9.01 5.485 8 7 C7.67 7.66 7.34 8.32 7 9 C5.14453125 6.70507812 5.14453125 6.70507812 3.2890625 4.41015625 C2.0333609 2.86733563 2.0333609 2.86733563 0 2 C0 1.34 0 0.68 0 0 Z " fill="#04032C" transform="translate(216,41)"/>
<path d="M0 0 C-1.24556092 0.81928886 -2.49666635 1.63015186 -3.75 2.4375 C-4.44609375 2.88996094 -5.1421875 3.34242187 -5.859375 3.80859375 C-7.92957014 4.9608009 -9.68696324 5.54676982 -12 6 C-12 5.34 -12 4.68 -12 4 C-10.56988027 3.13353333 -9.13059381 2.28218171 -7.6875 1.4375 C-6.48673828 0.72400391 -6.48673828 0.72400391 -5.26171875 -0.00390625 C-3 -1 -3 -1 0 0 Z " fill="#060336" transform="translate(219,83)"/>
<path d="M0 0 C0 0.66 0 1.32 0 2 C2.97 2.495 2.97 2.495 6 3 C5.67 3.66 5.34 4.32 5 5 C3.53932801 4.54917531 2.08151968 4.08906463 0.625 3.625 C-0.18710938 3.36976562 -0.99921875 3.11453125 -1.8359375 2.8515625 C-4 2 -4 2 -6 0 C-2.25 -1.125 -2.25 -1.125 0 0 Z " fill="#050239" transform="translate(191,85)"/>
<path d="M0 0 C0.66 0 1.32 0 2 0 C2 0.66 2 1.32 2 2 C2.99 2.33 3.98 2.66 5 3 C7 6 7 6 7 9 C6.34 9 5.68 9 5 9 C3.7109375 7.5390625 3.7109375 7.5390625 2.375 5.625 C1.92898437 4.99851562 1.48296875 4.37203125 1.0234375 3.7265625 C0 2 0 2 0 0 Z " fill="#07043A" transform="translate(177,75)"/>
<path d="M0 0 C1.65 0 3.3 0 5 0 C5.33 1.32 5.66 2.64 6 4 C5.01 4.33 4.02 4.66 3 5 C2.01 4.34 1.02 3.68 0 3 C0 2.01 0 1.02 0 0 Z " fill="#080637" transform="translate(187,64)"/>
<path d="M0 0 C3.57410797 2.68058098 6.31941902 5.42589203 9 9 C8.67 9.66 8.34 10.32 8 11 C7.34 10.67 6.68 10.34 6 10 C6 9.34 6 8.68 6 8 C5.34 8 4.68 8 4 8 C4 7.01 4 6.02 4 5 C3.01 4.67 2.02 4.34 1 4 C0.3125 1.9375 0.3125 1.9375 0 0 Z " fill="#030132" transform="translate(237,53)"/>
<path d="M0 0 C1.48285242 0.95262034 2.96118201 1.91228405 4.4375 2.875 C5.67306641 3.67550781 5.67306641 3.67550781 6.93359375 4.4921875 C9 6 9 6 10 8 C3.52864939 7.51159618 3.52864939 7.51159618 1.0625 5.125 C0 3 0 3 0 0 Z " fill="#020134" transform="translate(204,126)"/>
<path d="M0 0 C0.33 0.99 0.66 1.98 1 3 C-1.33333333 5.33333333 -3.66666667 7.66666667 -6 10 C-6 6 -6 6 -4.6875 4.296875 C-4.130625 3.78640625 -3.57375 3.2759375 -3 2.75 C-2.1646875 1.96882813 -2.1646875 1.96882813 -1.3125 1.171875 C-0.879375 0.78515625 -0.44625 0.3984375 0 0 Z " fill="#060139" transform="translate(136,27)"/>
<path d="M0 0 C2.64 1.65 5.28 3.3 8 5 C7.67 5.66 7.34 6.32 7 7 C4.69 6.01 2.38 5.02 0 4 C0 2.68 0 1.36 0 0 Z " fill="#040037" transform="translate(150,158)"/>
<path d="M0 0 C-5.75 5 -5.75 5 -8 5 C-7.25 2.5625 -7.25 2.5625 -6 0 C-3.40713222 -1.13437965 -2.55267344 -1.27633672 0 0 Z " fill="#04032B" transform="translate(238,135)"/>
<path d="M0 0 C1.65 0 3.3 0 5 0 C3.25 5.75 3.25 5.75 1 8 C0.67 5.36 0.34 2.72 0 0 Z " fill="#05023B" transform="translate(281,129)"/>
<path d="M0 0 C0.66 0 1.32 0 2 0 C2.67154933 1.28913487 3.33708859 2.58140204 4 3.875 C4.37125 4.59429687 4.7425 5.31359375 5.125 6.0546875 C6 8 6 8 6 10 C5.34 10 4.68 10 4 10 C1.6791945 6.7508723 0.56302958 3.94120709 0 0 Z " fill="#040135" transform="translate(281,48)"/>
<path d="M0 0 C-2.35953094 2.35953094 -3.77895617 2.49141413 -7 3 C-7 2.01 -7 1.02 -7 0 C-4.3333581 -1.33332095 -2.83319697 -0.67102033 0 0 Z " fill="#030226" transform="translate(240,146)"/>
<path d="M0 0 C3.4375 0.8125 3.4375 0.8125 7 2 C7.33 2.99 7.66 3.98 8 5 C5 5 5 5 2.3125 2.5 C1.549375 1.675 0.78625 0.85 0 0 Z " fill="#040227" transform="translate(162,134)"/>
<path d="M0 0 C6.75 1.625 6.75 1.625 9 5 C5.85262818 4.30058404 2.97411124 3.23921302 0 2 C0 1.34 0 0.68 0 0 Z " fill="#030231" transform="translate(225,101)"/>
<path d="M0 0 C0.66 0.33 1.32 0.66 2 1 C1.34 2.98 0.68 4.96 0 7 C-0.66 7 -1.32 7 -2 7 C-1.125 1.125 -1.125 1.125 0 0 Z " fill="#020123" transform="translate(173,150)"/>
<path d="M0 0 C1.485 0.99 1.485 0.99 3 2 C3 2.99 3 3.98 3 5 C3.99 5.33 4.98 5.66 6 6 C3.625 5.75 3.625 5.75 1 5 C-0.3125 2.9375 -0.3125 2.9375 -1 1 C-0.67 0.67 -0.34 0.34 0 0 Z " fill="#05022D" transform="translate(216,122)"/>
<path d="" fill="#000000" transform="translate(0,0)"/>
<path d="" fill="#000000" transform="translate(0,0)"/>
</svg>
